<svg width="1000" height="1000" viewBox="0 0 1000 1000" fill="none" xmlns="http://www.w3.org/2000/svg">
<mask id="path-1-outside-1_482_8" maskUnits="userSpaceOnUse" x="150" y="1" width="700" height="999" fill="black">
<rect fill="white" x="150" y="1" width="700" height="999"/>
<path d="M621.401 220.587C636.487 230.743 654.462 239.408 668.187 247.706C675.975 252.416 683.782 257.015 691.607 261.504C711.281 272.776 730.488 283.809 749.229 294.602C758.465 299.925 767.719 305.598 776.992 311.62C783.284 315.705 788.828 320.12 793.624 324.867C800.486 331.656 808.269 336.899 814.395 344.645C825.397 358.554 832.891 372.591 836.877 386.758C839.38 395.638 841.403 404.837 842.949 414.355C844.347 423.026 845.04 431.661 845.028 440.259C844.93 514.01 844.917 587.099 844.991 659.526C845.003 669.387 843.206 682.928 839.6 700.148C834.093 726.445 821.619 748.492 802.179 766.289C792.293 775.341 783.536 782.455 775.907 787.631C770.007 791.617 763.598 795.536 756.681 799.387C740.877 808.181 725.883 817.84 709.913 826.873C703.719 830.381 697.403 834.098 690.963 838.023C676.907 846.578 662.667 854.139 648.648 862.842C643.386 866.129 638.155 869.213 632.955 872.096C620.26 879.142 608.375 886.759 595.68 893.934C587.659 898.46 580.508 902.931 574.228 907.346C567.433 912.117 560.595 916.968 553.715 921.899C546.846 926.805 539.432 933.833 531.471 942.983C519.347 956.947 510.424 974.959 503.893 992.326C502.936 994.853 501.231 995.589 498.778 994.534C498.165 994.264 497.742 993.817 497.509 993.191C488.052 967.397 474.346 944.731 452.967 926.315C444.78 919.268 435.195 913.583 426.125 907.162C422.666 904.721 419.017 902.385 415.178 900.153C365.982 871.39 317.031 842.867 268.325 814.584C258.335 808.77 248.585 802.275 238.134 796.866C222.349 788.716 206.674 775.838 193.427 763.106C178.758 748.964 168.547 732.376 162.795 713.34C159.833 703.534 156.981 692.734 156.687 682.284C156.484 674.667 154.001 667.639 154.001 659.802C154.136 585.106 154.136 511.956 154.001 440.351C153.976 431.238 154.694 422.413 156.153 413.876C157.76 404.407 159.82 395.337 162.335 386.666C167.928 367.348 177.519 350.863 191.109 337.212C196.224 332.073 202.001 326.731 208.44 321.187C213.972 316.392 220.104 311.995 226.838 307.996C240.906 299.607 254.711 291.554 268.252 283.84C288.723 272.163 310.763 259.438 334.374 245.664C349.148 237.035 364.86 228.885 379.284 219.465C379.354 219.416 379.414 219.353 379.458 219.28C379.503 219.206 379.531 219.124 379.541 219.039C379.552 218.954 379.544 218.868 379.519 218.786C379.493 218.704 379.451 218.628 379.394 218.564C375.549 214.148 372.403 209.291 368.263 205.17C359.91 196.872 352.606 187.379 343.702 179.597C337.447 174.133 331.762 168.172 325.194 163.057C310.733 151.773 297.505 142.991 285.509 136.711C271.38 129.315 254.085 122.453 238.484 117.761C229.211 114.977 219.755 112.095 210.114 109.114C194.758 104.355 182.75 96.8121 174.091 86.4847C168.866 80.2416 165.646 74.2991 164.432 68.6571C160.035 48.0329 169.584 29.1015 184.799 15.5606C187.436 13.2056 190.465 11.2432 193.887 9.67322C196.77 8.3363 200.198 7.32443 204.172 6.63757C210.366 5.57049 216.609 5.02468 222.901 5.00015C228.592 4.98789 233.719 5.71153 238.282 7.1711C244.997 9.32366 251.841 10.2804 258.446 12.6537C275.942 19.001 291.121 29.1383 306.409 39.4043C316.197 45.9908 324.237 53.8099 333.381 61.0403C338.9 65.4068 344.186 70.3803 349.24 75.961C355.697 83.0811 363.204 88.95 369.312 96.7692C376.616 106.152 384.288 114.394 391.371 123.722C405.807 142.746 419.072 162.474 431.166 182.908C432.086 184.466 433.091 185.926 434.183 187.287C434.446 187.613 434.803 187.848 435.204 187.957C435.604 188.066 436.026 188.044 436.409 187.894C443.241 185.257 449.962 182.798 456.573 180.517C472.003 175.169 487.353 172.655 502.623 172.973C524.204 173.397 545.141 180.425 564.735 188.796C565.112 188.955 565.533 188.977 565.923 188.86C566.313 188.742 566.648 188.491 566.869 188.152C573.474 177.812 579.085 167.086 586.279 156.894C596.692 142.157 606.333 127.383 617.979 113.714C624.528 106.042 630.544 97.873 637.425 90.7714C647.305 80.5973 656.725 70.5704 667.837 61.1875C673.516 56.404 679.158 51.639 684.763 46.8923C693.079 39.8643 706.792 30.9535 725.901 20.16C728.526 18.6759 732.254 16.922 737.087 14.8983C744.943 11.605 752.1 10.078 759.753 7.57586C763.335 6.41065 766.732 5.77287 769.946 5.66248C777.906 5.38038 785.762 5.36198 793.513 5.60729C811.783 6.19602 825.986 23.0301 833.419 37.6749C836.399 43.5623 837.429 49.3944 837.779 55.9993C838.306 65.7747 836.356 73.8698 831.928 80.2846C823.318 92.7952 812.181 101.479 798.518 106.336C790.404 109.225 782.015 112.187 773.828 114.45C756.313 119.294 739.742 125.347 724.116 132.608C711.127 138.643 696.47 147.744 680.145 159.911C671.958 166.019 665.132 173.139 657.479 179.799C652.573 184.067 647.642 189.066 642.687 194.793C635.659 202.907 627.546 210.597 621.18 219.281C620.8 219.796 620.873 220.232 621.401 220.587ZM529.724 414.244C539.977 416.918 549.642 420.064 558.719 423.682C564.483 425.976 573.37 430.594 585.377 437.536C636.119 466.838 686.854 496.152 737.584 525.478C738.614 526.079 739.485 526.331 740.196 526.233C740.549 526.192 740.876 526.022 741.113 525.754C741.35 525.486 741.482 525.139 741.484 524.779C741.472 494.79 741.459 465.427 741.447 436.69C741.447 427.546 740.086 415.753 733.058 409.038C725.404 401.74 717.947 396.006 710.686 391.836C655.369 360.081 600.776 328.491 546.907 297.068C536.617 291.058 527.835 286.25 520.561 282.644C514.03 279.387 502.881 275.064 496.571 276.646C486.243 279.234 478.062 282.263 472.028 285.734C412.529 320.028 353.054 354.365 293.604 388.745C285.675 393.326 278.555 397.208 271.177 403.481C266.97 407.063 263.971 410.454 262.181 413.655C258.869 419.561 257.673 428.576 257.636 435.439C257.514 462.459 257.52 492.27 257.655 524.871C257.656 525.228 257.786 525.572 258.023 525.843C258.259 526.113 258.585 526.29 258.943 526.343C259.482 526.429 259.997 526.325 260.488 526.03C313.817 495.085 367.834 463.87 422.537 432.385C436.642 424.265 454.562 417.77 476.296 412.901C486.452 410.62 497.472 412 507.83 411.613C514.735 411.356 522.033 412.233 529.724 414.244ZM523.505 660.115C534.581 663.095 545.264 666.535 555.554 670.436C563.821 673.563 573.357 678.322 584.163 684.713C610.767 700.424 637.358 715.817 663.937 730.891C664.694 731.318 665.55 731.541 666.42 731.538C667.291 731.535 668.147 731.306 668.904 730.873C685.818 721.232 701.272 712.138 715.267 703.589C721.78 699.633 734.346 690.802 737.16 682.854C741.073 671.754 740.92 661.028 736.701 650.676C736.038 649.045 735.008 647.573 733.61 646.261C725.846 638.92 717.953 632.775 708.754 627.477C650.825 594.127 591.651 559.944 531.232 524.926C521.567 519.321 512.81 515.531 504.96 513.556C501.661 512.735 498.386 512.741 495.135 513.575C486.084 515.881 478.412 518.849 472.12 522.479C407.788 559.57 344.824 595.893 283.228 631.451C276.807 635.167 271.196 639.877 266.026 645.12C257.599 653.638 258.041 670.932 261.04 681.327C262.033 684.749 263.867 687.711 266.541 690.214C273.029 696.297 279.714 701.363 286.595 705.41C301.227 714.021 315.774 722.496 330.235 730.836C330.951 731.251 331.764 731.471 332.594 731.475C333.423 731.478 334.24 731.264 334.963 730.855C361.726 715.646 387.992 700.467 413.761 685.32C433.41 673.784 451.293 666.903 472.598 661.034C476.388 659.992 480.239 659.274 484.152 658.882C492.817 658.035 499.956 656.288 508.952 658.293C513.846 659.379 518.574 658.79 523.505 660.115Z"/>
</mask>
<path d="M621.401 220.587C636.487 230.743 654.462 239.408 668.187 247.706C675.975 252.416 683.782 257.015 691.607 261.504C711.281 272.776 730.488 283.809 749.229 294.602C758.465 299.925 767.719 305.598 776.992 311.62C783.284 315.705 788.828 320.12 793.624 324.867C800.486 331.656 808.269 336.899 814.395 344.645C825.397 358.554 832.891 372.591 836.877 386.758C839.38 395.638 841.403 404.837 842.949 414.355C844.347 423.026 845.04 431.661 845.028 440.259C844.93 514.01 844.917 587.099 844.991 659.526C845.003 669.387 843.206 682.928 839.6 700.148C834.093 726.445 821.619 748.492 802.179 766.289C792.293 775.341 783.536 782.455 775.907 787.631C770.007 791.617 763.598 795.536 756.681 799.387C740.877 808.181 725.883 817.84 709.913 826.873C703.719 830.381 697.403 834.098 690.963 838.023C676.907 846.578 662.667 854.139 648.648 862.842C643.386 866.129 638.155 869.213 632.955 872.096C620.26 879.142 608.375 886.759 595.68 893.934C587.659 898.46 580.508 902.931 574.228 907.346C567.433 912.117 560.595 916.968 553.715 921.899C546.846 926.805 539.432 933.833 531.471 942.983C519.347 956.947 510.424 974.959 503.893 992.326C502.936 994.853 501.231 995.589 498.778 994.534C498.165 994.264 497.742 993.817 497.509 993.191C488.052 967.397 474.346 944.731 452.967 926.315C444.78 919.268 435.195 913.583 426.125 907.162C422.666 904.721 419.017 902.385 415.178 900.153C365.982 871.39 317.031 842.867 268.325 814.584C258.335 808.77 248.585 802.275 238.134 796.866C222.349 788.716 206.674 775.838 193.427 763.106C178.758 748.964 168.547 732.376 162.795 713.34C159.833 703.534 156.981 692.734 156.687 682.284C156.484 674.667 154.001 667.639 154.001 659.802C154.136 585.106 154.136 511.956 154.001 440.351C153.976 431.238 154.694 422.413 156.153 413.876C157.76 404.407 159.82 395.337 162.335 386.666C167.928 367.348 177.519 350.863 191.109 337.212C196.224 332.073 202.001 326.731 208.44 321.187C213.972 316.392 220.104 311.995 226.838 307.996C240.906 299.607 254.711 291.554 268.252 283.84C288.723 272.163 310.763 259.438 334.374 245.664C349.148 237.035 364.86 228.885 379.284 219.465C379.354 219.416 379.414 219.353 379.458 219.28C379.503 219.206 379.531 219.124 379.541 219.039C379.552 218.954 379.544 218.868 379.519 218.786C379.493 218.704 379.451 218.628 379.394 218.564C375.549 214.148 372.403 209.291 368.263 205.17C359.91 196.872 352.606 187.379 343.702 179.597C337.447 174.133 331.762 168.172 325.194 163.057C310.733 151.773 297.505 142.991 285.509 136.711C271.38 129.315 254.085 122.453 238.484 117.761C229.211 114.977 219.755 112.095 210.114 109.114C194.758 104.355 182.75 96.8121 174.091 86.4847C168.866 80.2416 165.646 74.2991 164.432 68.6571C160.035 48.0329 169.584 29.1015 184.799 15.5606C187.436 13.2056 190.465 11.2432 193.887 9.67322C196.77 8.3363 200.198 7.32443 204.172 6.63757C210.366 5.57049 216.609 5.02468 222.901 5.00015C228.592 4.98789 233.719 5.71153 238.282 7.1711C244.997 9.32366 251.841 10.2804 258.446 12.6537C275.942 19.001 291.121 29.1383 306.409 39.4043C316.197 45.9908 324.237 53.8099 333.381 61.0403C338.9 65.4068 344.186 70.3803 349.24 75.961C355.697 83.0811 363.204 88.95 369.312 96.7692C376.616 106.152 384.288 114.394 391.371 123.722C405.807 142.746 419.072 162.474 431.166 182.908C432.086 184.466 433.091 185.926 434.183 187.287C434.446 187.613 434.803 187.848 435.204 187.957C435.604 188.066 436.026 188.044 436.409 187.894C443.241 185.257 449.962 182.798 456.573 180.517C472.003 175.169 487.353 172.655 502.623 172.973C524.204 173.397 545.141 180.425 564.735 188.796C565.112 188.955 565.533 188.977 565.923 188.86C566.313 188.742 566.648 188.491 566.869 188.152C573.474 177.812 579.085 167.086 586.279 156.894C596.692 142.157 606.333 127.383 617.979 113.714C624.528 106.042 630.544 97.873 637.425 90.7714C647.305 80.5973 656.725 70.5704 667.837 61.1875C673.516 56.404 679.158 51.639 684.763 46.8923C693.079 39.8643 706.792 30.9535 725.901 20.16C728.526 18.6759 732.254 16.922 737.087 14.8983C744.943 11.605 752.1 10.078 759.753 7.57586C763.335 6.41065 766.732 5.77287 769.946 5.66248C777.906 5.38038 785.762 5.36198 793.513 5.60729C811.783 6.19602 825.986 23.0301 833.419 37.6749C836.399 43.5623 837.429 49.3944 837.779 55.9993C838.306 65.7747 836.356 73.8698 831.928 80.2846C823.318 92.7952 812.181 101.479 798.518 106.336C790.404 109.225 782.015 112.187 773.828 114.45C756.313 119.294 739.742 125.347 724.116 132.608C711.127 138.643 696.47 147.744 680.145 159.911C671.958 166.019 665.132 173.139 657.479 179.799C652.573 184.067 647.642 189.066 642.687 194.793C635.659 202.907 627.546 210.597 621.18 219.281C620.8 219.796 620.873 220.232 621.401 220.587ZM529.724 414.244C539.977 416.918 549.642 420.064 558.719 423.682C564.483 425.976 573.37 430.594 585.377 437.536C636.119 466.838 686.854 496.152 737.584 525.478C738.614 526.079 739.485 526.331 740.196 526.233C740.549 526.192 740.876 526.022 741.113 525.754C741.35 525.486 741.482 525.139 741.484 524.779C741.472 494.79 741.459 465.427 741.447 436.69C741.447 427.546 740.086 415.753 733.058 409.038C725.404 401.74 717.947 396.006 710.686 391.836C655.369 360.081 600.776 328.491 546.907 297.068C536.617 291.058 527.835 286.25 520.561 282.644C514.03 279.387 502.881 275.064 496.571 276.646C486.243 279.234 478.062 282.263 472.028 285.734C412.529 320.028 353.054 354.365 293.604 388.745C285.675 393.326 278.555 397.208 271.177 403.481C266.97 407.063 263.971 410.454 262.181 413.655C258.869 419.561 257.673 428.576 257.636 435.439C257.514 462.459 257.52 492.27 257.655 524.871C257.656 525.228 257.786 525.572 258.023 525.843C258.259 526.113 258.585 526.29 258.943 526.343C259.482 526.429 259.997 526.325 260.488 526.03C313.817 495.085 367.834 463.87 422.537 432.385C436.642 424.265 454.562 417.77 476.296 412.901C486.452 410.62 497.472 412 507.83 411.613C514.735 411.356 522.033 412.233 529.724 414.244ZM523.505 660.115C534.581 663.095 545.264 666.535 555.554 670.436C563.821 673.563 573.357 678.322 584.163 684.713C610.767 700.424 637.358 715.817 663.937 730.891C664.694 731.318 665.55 731.541 666.42 731.538C667.291 731.535 668.147 731.306 668.904 730.873C685.818 721.232 701.272 712.138 715.267 703.589C721.78 699.633 734.346 690.802 737.16 682.854C741.073 671.754 740.92 661.028 736.701 650.676C736.038 649.045 735.008 647.573 733.61 646.261C725.846 638.92 717.953 632.775 708.754 627.477C650.825 594.127 591.651 559.944 531.232 524.926C521.567 519.321 512.81 515.531 504.96 513.556C501.661 512.735 498.386 512.741 495.135 513.575C486.084 515.881 478.412 518.849 472.12 522.479C407.788 559.57 344.824 595.893 283.228 631.451C276.807 635.167 271.196 639.877 266.026 645.12C257.599 653.638 258.041 670.932 261.04 681.327C262.033 684.749 263.867 687.711 266.541 690.214C273.029 696.297 279.714 701.363 286.595 705.41C301.227 714.021 315.774 722.496 330.235 730.836C330.951 731.251 331.764 731.471 332.594 731.475C333.423 731.478 334.24 731.264 334.963 730.855C361.726 715.646 387.992 700.467 413.761 685.32C433.41 673.784 451.293 666.903 472.598 661.034C476.388 659.992 480.239 659.274 484.152 658.882C492.817 658.035 499.956 656.288 508.952 658.293C513.846 659.379 518.574 658.79 523.505 660.115Z" fill="#F3C622"/>
<path d="M621.401 220.587C636.487 230.743 654.462 239.408 668.187 247.706C675.975 252.416 683.782 257.015 691.607 261.504C711.281 272.776 730.488 283.809 749.229 294.602C758.465 299.925 767.719 305.598 776.992 311.62C783.284 315.705 788.828 320.12 793.624 324.867C800.486 331.656 808.269 336.899 814.395 344.645C825.397 358.554 832.891 372.591 836.877 386.758C839.38 395.638 841.403 404.837 842.949 414.355C844.347 423.026 845.04 431.661 845.028 440.259C844.93 514.01 844.917 587.099 844.991 659.526C845.003 669.387 843.206 682.928 839.6 700.148C834.093 726.445 821.619 748.492 802.179 766.289C792.293 775.341 783.536 782.455 775.907 787.631C770.007 791.617 763.598 795.536 756.681 799.387C740.877 808.181 725.883 817.84 709.913 826.873C703.719 830.381 697.403 834.098 690.963 838.023C676.907 846.578 662.667 854.139 648.648 862.842C643.386 866.129 638.155 869.213 632.955 872.096C620.26 879.142 608.375 886.759 595.68 893.934C587.659 898.46 580.508 902.931 574.228 907.346C567.433 912.117 560.595 916.968 553.715 921.899C546.846 926.805 539.432 933.833 531.471 942.983C519.347 956.947 510.424 974.959 503.893 992.326C502.936 994.853 501.231 995.589 498.778 994.534C498.165 994.264 497.742 993.817 497.509 993.191C488.052 967.397 474.346 944.731 452.967 926.315C444.78 919.268 435.195 913.583 426.125 907.162C422.666 904.721 419.017 902.385 415.178 900.153C365.982 871.39 317.031 842.867 268.325 814.584C258.335 808.77 248.585 802.275 238.134 796.866C222.349 788.716 206.674 775.838 193.427 763.106C178.758 748.964 168.547 732.376 162.795 713.34C159.833 703.534 156.981 692.734 156.687 682.284C156.484 674.667 154.001 667.639 154.001 659.802C154.136 585.106 154.136 511.956 154.001 440.351C153.976 431.238 154.694 422.413 156.153 413.876C157.76 404.407 159.82 395.337 162.335 386.666C167.928 367.348 177.519 350.863 191.109 337.212C196.224 332.073 202.001 326.731 208.44 321.187C213.972 316.392 220.104 311.995 226.838 307.996C240.906 299.607 254.711 291.554 268.252 283.84C288.723 272.163 310.763 259.438 334.374 245.664C349.148 237.035 364.86 228.885 379.284 219.465C379.354 219.416 379.414 219.353 379.458 219.28C379.503 219.206 379.531 219.124 379.541 219.039C379.552 218.954 379.544 218.868 379.519 218.786C379.493 218.704 379.451 218.628 379.394 218.564C375.549 214.148 372.403 209.291 368.263 205.17C359.91 196.872 352.606 187.379 343.702 179.597C337.447 174.133 331.762 168.172 325.194 163.057C310.733 151.773 297.505 142.991 285.509 136.711C271.38 129.315 254.085 122.453 238.484 117.761C229.211 114.977 219.755 112.095 210.114 109.114C194.758 104.355 182.75 96.8121 174.091 86.4847C168.866 80.2416 165.646 74.2991 164.432 68.6571C160.035 48.0329 169.584 29.1015 184.799 15.5606C187.436 13.2056 190.465 11.2432 193.887 9.67322C196.77 8.3363 200.198 7.32443 204.172 6.63757C210.366 5.57049 216.609 5.02468 222.901 5.00015C228.592 4.98789 233.719 5.71153 238.282 7.1711C244.997 9.32366 251.841 10.2804 258.446 12.6537C275.942 19.001 291.121 29.1383 306.409 39.4043C316.197 45.9908 324.237 53.8099 333.381 61.0403C338.9 65.4068 344.186 70.3803 349.24 75.961C355.697 83.0811 363.204 88.95 369.312 96.7692C376.616 106.152 384.288 114.394 391.371 123.722C405.807 142.746 419.072 162.474 431.166 182.908C432.086 184.466 433.091 185.926 434.183 187.287C434.446 187.613 434.803 187.848 435.204 187.957C435.604 188.066 436.026 188.044 436.409 187.894C443.241 185.257 449.962 182.798 456.573 180.517C472.003 175.169 487.353 172.655 502.623 172.973C524.204 173.397 545.141 180.425 564.735 188.796C565.112 188.955 565.533 188.977 565.923 188.86C566.313 188.742 566.648 188.491 566.869 188.152C573.474 177.812 579.085 167.086 586.279 156.894C596.692 142.157 606.333 127.383 617.979 113.714C624.528 106.042 630.544 97.873 637.425 90.7714C647.305 80.5973 656.725 70.5704 667.837 61.1875C673.516 56.404 679.158 51.639 684.763 46.8923C693.079 39.8643 706.792 30.9535 725.901 20.16C728.526 18.6759 732.254 16.922 737.087 14.8983C744.943 11.605 752.1 10.078 759.753 7.57586C763.335 6.41065 766.732 5.77287 769.946 5.66248C777.906 5.38038 785.762 5.36198 793.513 5.60729C811.783 6.19602 825.986 23.0301 833.419 37.6749C836.399 43.5623 837.429 49.3944 837.779 55.9993C838.306 65.7747 836.356 73.8698 831.928 80.2846C823.318 92.7952 812.181 101.479 798.518 106.336C790.404 109.225 782.015 112.187 773.828 114.45C756.313 119.294 739.742 125.347 724.116 132.608C711.127 138.643 696.47 147.744 680.145 159.911C671.958 166.019 665.132 173.139 657.479 179.799C652.573 184.067 647.642 189.066 642.687 194.793C635.659 202.907 627.546 210.597 621.18 219.281C620.8 219.796 620.873 220.232 621.401 220.587ZM529.724 414.244C539.977 416.918 549.642 420.064 558.719 423.682C564.483 425.976 573.37 430.594 585.377 437.536C636.119 466.838 686.854 496.152 737.584 525.478C738.614 526.079 739.485 526.331 740.196 526.233C740.549 526.192 740.876 526.022 741.113 525.754C741.35 525.486 741.482 525.139 741.484 524.779C741.472 494.79 741.459 465.427 741.447 436.69C741.447 427.546 740.086 415.753 733.058 409.038C725.404 401.74 717.947 396.006 710.686 391.836C655.369 360.081 600.776 328.491 546.907 297.068C536.617 291.058 527.835 286.25 520.561 282.644C514.03 279.387 502.881 275.064 496.571 276.646C486.243 279.234 478.062 282.263 472.028 285.734C412.529 320.028 353.054 354.365 293.604 388.745C285.675 393.326 278.555 397.208 271.177 403.481C266.97 407.063 263.971 410.454 262.181 413.655C258.869 419.561 257.673 428.576 257.636 435.439C257.514 462.459 257.52 492.27 257.655 524.871C257.656 525.228 257.786 525.572 258.023 525.843C258.259 526.113 258.585 526.29 258.943 526.343C259.482 526.429 259.997 526.325 260.488 526.03C313.817 495.085 367.834 463.87 422.537 432.385C436.642 424.265 454.562 417.77 476.296 412.901C486.452 410.62 497.472 412 507.83 411.613C514.735 411.356 522.033 412.233 529.724 414.244ZM523.505 660.115C534.581 663.095 545.264 666.535 555.554 670.436C563.821 673.563 573.357 678.322 584.163 684.713C610.767 700.424 637.358 715.817 663.937 730.891C664.694 731.318 665.55 731.541 666.42 731.538C667.291 731.535 668.147 731.306 668.904 730.873C685.818 721.232 701.272 712.138 715.267 703.589C721.78 699.633 734.346 690.802 737.16 682.854C741.073 671.754 740.92 661.028 736.701 650.676C736.038 649.045 735.008 647.573 733.61 646.261C725.846 638.92 717.953 632.775 708.754 627.477C650.825 594.127 591.651 559.944 531.232 524.926C521.567 519.321 512.81 515.531 504.96 513.556C501.661 512.735 498.386 512.741 495.135 513.575C486.084 515.881 478.412 518.849 472.12 522.479C407.788 559.57 344.824 595.893 283.228 631.451C276.807 635.167 271.196 639.877 266.026 645.12C257.599 653.638 258.041 670.932 261.04 681.327C262.033 684.749 263.867 687.711 266.541 690.214C273.029 696.297 279.714 701.363 286.595 705.41C301.227 714.021 315.774 722.496 330.235 730.836C330.951 731.251 331.764 731.471 332.594 731.475C333.423 731.478 334.24 731.264 334.963 730.855C361.726 715.646 387.992 700.467 413.761 685.32C433.41 673.784 451.293 666.903 472.598 661.034C476.388 659.992 480.239 659.274 484.152 658.882C492.817 658.035 499.956 656.288 508.952 658.293C513.846 659.379 518.574 658.79 523.505 660.115Z" stroke="#1B1B1F" stroke-width="8" mask="url(#path-1-outside-1_482_8)"/>
</svg>
