<svg width="1000" height="1000" viewBox="0 0 1000 1000" fill="none" xmlns="http://www.w3.org/2000/svg">
<path d="M623.761 221.676C638.924 231.883 656.989 240.592 670.783 248.932C678.611 253.665 686.458 258.288 694.322 262.8C714.095 274.129 733.4 285.217 752.236 296.065C761.518 301.415 770.819 307.116 780.139 313.169C786.462 317.274 792.034 321.712 796.854 326.482C803.751 333.306 811.573 338.575 817.73 346.36C828.788 360.339 836.32 374.448 840.326 388.686C842.841 397.611 844.875 406.856 846.428 416.422C847.834 425.137 848.53 433.816 848.518 442.457C848.419 516.581 848.407 590.039 848.481 662.831C848.493 672.743 846.687 686.352 843.063 703.659C837.528 730.089 824.991 752.247 805.453 770.134C795.517 779.231 786.715 786.381 779.048 791.583C773.118 795.59 766.677 799.528 759.725 803.399C743.841 812.238 728.771 821.945 712.721 831.024C706.495 834.55 700.147 838.285 693.675 842.23C679.548 850.828 665.236 858.428 651.146 867.174C645.858 870.478 640.6 873.578 635.374 876.475C622.615 883.557 610.67 891.212 597.911 898.424C589.849 902.972 582.662 907.466 576.351 911.904C569.521 916.699 562.649 921.574 555.733 926.53C548.83 931.461 541.378 938.524 533.378 947.72C521.192 961.755 512.224 979.858 505.66 997.313C504.698 999.852 502.985 1000.59 500.52 999.532C499.903 999.26 499.478 998.811 499.244 998.182C489.739 972.258 475.964 949.477 454.477 930.968C446.249 923.886 436.615 918.172 427.499 911.719C424.023 909.265 420.355 906.917 416.497 904.674C367.052 875.766 317.854 847.099 268.903 818.673C258.862 812.829 249.062 806.302 238.559 800.866C222.694 792.674 206.94 779.731 193.627 766.935C178.883 752.722 168.621 736.049 162.839 716.917C159.862 707.062 156.996 696.208 156.7 685.705C156.497 678.049 154.001 670.986 154.001 663.109C154.136 588.036 154.136 514.516 154.001 442.55C153.976 433.391 154.697 424.521 156.164 415.941C157.779 406.425 159.85 397.309 162.377 388.593C167.998 369.178 177.638 352.61 191.297 338.89C196.437 333.725 202.243 328.356 208.715 322.784C214.275 317.964 220.438 313.545 227.206 309.526C241.345 301.094 255.22 293.002 268.829 285.248C289.403 273.512 311.555 260.723 335.285 246.879C350.133 238.207 365.925 230.016 380.421 220.548C380.492 220.499 380.552 220.436 380.597 220.362C380.641 220.288 380.67 220.206 380.68 220.12C380.691 220.035 380.683 219.948 380.658 219.865C380.632 219.783 380.589 219.707 380.532 219.642C376.668 215.204 373.506 210.323 369.345 206.181C360.95 197.841 353.61 188.3 344.66 180.479C338.373 174.987 332.659 168.996 326.058 163.855C311.524 152.514 298.229 143.688 286.173 137.376C271.972 129.943 254.591 123.046 238.911 118.331C229.591 115.532 220.087 112.636 210.398 109.64C194.964 104.857 182.896 97.2758 174.193 86.8962C168.941 80.6217 165.705 74.6491 164.485 68.9786C160.066 48.2503 169.662 29.2232 184.954 15.6139C187.605 13.2471 190.65 11.2747 194.089 9.69682C196.986 8.35315 200.431 7.33617 204.425 6.64584C210.65 5.57337 216.925 5.02481 223.249 5.00015C228.969 4.98783 234.122 5.71512 238.707 7.18206C245.456 9.3455 252.335 10.307 258.973 12.6924C276.558 19.0717 291.813 29.2602 307.179 39.5781C317.016 46.1978 325.097 54.0564 334.287 61.3233C339.834 65.7118 345.147 70.7105 350.226 76.3194C356.716 83.4754 364.26 89.374 370.399 97.2326C377.74 106.663 385.451 114.947 392.57 124.322C407.079 143.441 420.411 163.27 432.566 183.807C433.49 185.372 434.501 186.839 435.598 188.208C435.862 188.535 436.221 188.771 436.624 188.881C437.026 188.991 437.451 188.969 437.835 188.818C444.702 186.168 451.457 183.696 458.101 181.403C473.609 176.028 489.037 173.501 504.384 173.822C526.074 174.247 547.117 181.311 566.809 189.724C567.189 189.884 567.611 189.906 568.003 189.788C568.395 189.67 568.732 189.418 568.954 189.077C575.593 178.685 581.232 167.905 588.462 157.661C598.928 142.85 608.617 128.001 620.322 114.263C626.905 106.552 632.951 98.3421 639.867 91.2046C649.796 80.9791 659.264 70.9016 670.432 61.4713C676.14 56.6636 681.81 51.8745 687.444 47.1039C695.802 40.0404 709.583 31.0846 728.789 20.2366C731.427 18.745 735.175 16.9822 740.032 14.9483C747.927 11.6384 755.12 10.1036 762.813 7.58886C766.412 6.41778 769.827 5.77677 773.056 5.66583C781.057 5.3823 788.952 5.36381 796.743 5.61036C815.105 6.20206 829.38 23.1212 836.85 37.8399C839.846 43.757 840.881 49.6186 841.232 56.2569C841.762 66.0817 839.802 74.2177 835.352 80.6648C826.699 93.2386 815.505 101.966 801.773 106.848C793.618 109.751 785.187 112.728 776.958 115.002C759.355 119.872 742.701 125.955 726.996 133.253C713.941 139.318 699.21 148.465 682.803 160.693C674.574 166.832 667.714 173.988 660.022 180.682C655.091 184.972 650.135 189.995 645.155 195.752C638.092 203.906 629.937 211.636 623.539 220.363C623.157 220.881 623.231 221.319 623.761 221.676ZM531.621 416.311C541.927 418.998 551.641 422.16 560.763 425.797C566.557 428.102 575.488 432.743 587.556 439.721C638.554 469.17 689.546 498.633 740.531 528.107C741.567 528.711 742.442 528.964 743.157 528.865C743.512 528.824 743.84 528.653 744.078 528.384C744.317 528.115 744.449 527.766 744.451 527.404C744.439 497.264 744.426 467.753 744.414 438.87C744.414 429.68 743.046 417.827 735.982 411.078C728.29 403.743 720.795 397.981 713.497 393.789C657.902 361.874 603.033 330.125 548.892 298.543C538.549 292.502 529.723 287.67 522.413 284.046C515.848 280.773 504.643 276.428 498.301 278.018C487.921 280.619 479.699 283.664 473.634 287.152C413.834 321.619 354.06 356.129 294.309 390.683C286.34 395.287 279.184 399.189 271.769 405.494C267.541 409.094 264.527 412.502 262.727 415.719C259.399 421.655 258.197 430.716 258.16 437.613C258.036 464.77 258.043 494.731 258.178 527.497C258.179 527.855 258.311 528.202 258.548 528.473C258.786 528.744 259.114 528.923 259.473 528.976C260.015 529.062 260.533 528.958 261.026 528.662C314.625 497.56 368.914 466.187 423.893 434.543C438.07 426.382 456.08 419.855 477.924 414.961C488.131 412.668 499.207 414.055 509.617 413.667C516.557 413.408 523.892 414.289 531.621 416.311ZM525.371 663.423C536.503 666.419 547.24 669.876 557.582 673.797C565.891 676.94 575.475 681.723 586.336 688.146C613.074 703.937 639.799 719.407 666.512 734.558C667.273 734.987 668.133 735.211 669.008 735.207C669.884 735.204 670.744 734.974 671.505 734.539C688.504 724.85 704.036 715.709 718.102 707.117C724.647 703.142 737.277 694.266 740.106 686.278C744.038 675.122 743.884 664.342 739.643 653.937C738.978 652.298 737.942 650.819 736.537 649.5C728.734 642.122 720.801 635.946 711.556 630.62C653.334 597.103 593.861 562.747 533.137 527.552C523.424 521.919 514.622 518.11 506.732 516.125C503.416 515.299 500.125 515.305 496.858 516.143C487.761 518.461 480.05 521.444 473.726 525.093C409.07 562.371 345.788 598.878 283.88 634.614C277.427 638.35 271.787 643.083 266.592 648.353C258.123 656.914 258.566 674.296 261.58 684.743C262.579 688.182 264.422 691.16 267.109 693.674C273.63 699.789 280.349 704.88 287.264 708.948C301.971 717.601 316.591 726.12 331.125 734.502C331.845 734.919 332.662 735.141 333.496 735.144C334.329 735.147 335.15 734.932 335.877 734.521C362.775 719.235 389.174 703.98 415.073 688.756C434.822 677.162 452.795 670.246 474.207 664.348C478.016 663.3 481.887 662.579 485.819 662.184C494.529 661.334 501.703 659.577 510.745 661.593C515.664 662.684 520.416 662.092 525.371 663.423Z" fill="#F3C622"/>
</svg>
